<mxfile host="Electron" modified="2024-04-09T00:56:14.546Z" agent="Mozilla/5.0 (Windows NT 10.0; Win64; x64) AppleWebKit/537.36 (KHTML, like Gecko) draw.io/24.1.0 Chrome/120.0.6099.109 Electron/28.1.0 Safari/537.36" etag="lI5EzfvMRGnUl-nHdVnR" version="24.1.0" type="device">
  <diagram name="Page-1" id="eJg8gPEo-PW8HqNfOSe2">
    <mxGraphModel dx="1434" dy="836" grid="1" gridSize="10" guides="1" tooltips="1" connect="1" arrows="1" fold="1" page="1" pageScale="1" pageWidth="850" pageHeight="1100" math="0" shadow="0">
      <root>
        <mxCell id="0" />
        <mxCell id="1" parent="0" />
        <mxCell id="jfE823DEsom-EpSGW_7k-14" style="edgeStyle=orthogonalEdgeStyle;rounded=0;orthogonalLoop=1;jettySize=auto;html=1;" edge="1" parent="1" source="jfE823DEsom-EpSGW_7k-1" target="jfE823DEsom-EpSGW_7k-4">
          <mxGeometry relative="1" as="geometry" />
        </mxCell>
        <mxCell id="jfE823DEsom-EpSGW_7k-1" value="Raw Data" style="shape=parallelogram;html=1;strokeWidth=2;perimeter=parallelogramPerimeter;whiteSpace=wrap;rounded=1;arcSize=12;size=0.23;fillColor=#f8cecc;strokeColor=#b85450;" vertex="1" parent="1">
          <mxGeometry x="310" y="20" width="100" height="60" as="geometry" />
        </mxCell>
        <mxCell id="jfE823DEsom-EpSGW_7k-18" style="edgeStyle=orthogonalEdgeStyle;rounded=0;orthogonalLoop=1;jettySize=auto;html=1;exitX=0.5;exitY=1;exitDx=0;exitDy=0;entryX=0.5;entryY=0;entryDx=0;entryDy=0;" edge="1" parent="1" source="jfE823DEsom-EpSGW_7k-4" target="jfE823DEsom-EpSGW_7k-17">
          <mxGeometry relative="1" as="geometry" />
        </mxCell>
        <mxCell id="jfE823DEsom-EpSGW_7k-4" value="Feature Extraction" style="swimlane;whiteSpace=wrap;html=1;fillColor=#fff2cc;strokeColor=#d6b656;" vertex="1" parent="1">
          <mxGeometry x="160" y="120" width="400" height="200" as="geometry">
            <mxRectangle x="160" y="120" width="140" height="30" as="alternateBounds" />
          </mxGeometry>
        </mxCell>
        <mxCell id="jfE823DEsom-EpSGW_7k-5" value="Librosa Features" style="swimlane;fontStyle=0;childLayout=stackLayout;horizontal=1;startSize=30;horizontalStack=0;resizeParent=1;resizeParentMax=0;resizeLast=0;collapsible=1;marginBottom=0;whiteSpace=wrap;html=1;fillColor=#fff2cc;strokeColor=#d6b656;" vertex="1" parent="jfE823DEsom-EpSGW_7k-4">
          <mxGeometry x="40" y="40" width="120" height="150" as="geometry" />
        </mxCell>
        <mxCell id="jfE823DEsom-EpSGW_7k-6" value="MFCC" style="text;strokeColor=none;fillColor=none;align=center;verticalAlign=middle;spacingLeft=4;spacingRight=4;overflow=hidden;points=[[0,0.5],[1,0.5]];portConstraint=eastwest;rotatable=0;whiteSpace=wrap;html=1;" vertex="1" parent="jfE823DEsom-EpSGW_7k-5">
          <mxGeometry y="30" width="120" height="30" as="geometry" />
        </mxCell>
        <mxCell id="jfE823DEsom-EpSGW_7k-7" value="Chromagram" style="text;strokeColor=none;fillColor=none;align=center;verticalAlign=middle;spacingLeft=4;spacingRight=4;overflow=hidden;points=[[0,0.5],[1,0.5]];portConstraint=eastwest;rotatable=0;whiteSpace=wrap;html=1;" vertex="1" parent="jfE823DEsom-EpSGW_7k-5">
          <mxGeometry y="60" width="120" height="30" as="geometry" />
        </mxCell>
        <mxCell id="jfE823DEsom-EpSGW_7k-8" value="CENS" style="text;strokeColor=none;fillColor=none;align=center;verticalAlign=middle;spacingLeft=4;spacingRight=4;overflow=hidden;points=[[0,0.5],[1,0.5]];portConstraint=eastwest;rotatable=0;whiteSpace=wrap;html=1;" vertex="1" parent="jfE823DEsom-EpSGW_7k-5">
          <mxGeometry y="90" width="120" height="30" as="geometry" />
        </mxCell>
        <mxCell id="jfE823DEsom-EpSGW_7k-12" value="etc." style="text;strokeColor=none;fillColor=none;align=center;verticalAlign=middle;spacingLeft=4;spacingRight=4;overflow=hidden;points=[[0,0.5],[1,0.5]];portConstraint=eastwest;rotatable=0;whiteSpace=wrap;html=1;" vertex="1" parent="jfE823DEsom-EpSGW_7k-5">
          <mxGeometry y="120" width="120" height="30" as="geometry" />
        </mxCell>
        <mxCell id="jfE823DEsom-EpSGW_7k-15" value="Summary Statistics" style="rounded=0;whiteSpace=wrap;html=1;fillColor=#fff2cc;strokeColor=#d6b656;" vertex="1" parent="jfE823DEsom-EpSGW_7k-4">
          <mxGeometry x="240" y="85" width="120" height="60" as="geometry" />
        </mxCell>
        <mxCell id="jfE823DEsom-EpSGW_7k-16" style="edgeStyle=orthogonalEdgeStyle;rounded=0;orthogonalLoop=1;jettySize=auto;html=1;entryX=0;entryY=0.5;entryDx=0;entryDy=0;" edge="1" parent="jfE823DEsom-EpSGW_7k-4" source="jfE823DEsom-EpSGW_7k-7" target="jfE823DEsom-EpSGW_7k-15">
          <mxGeometry relative="1" as="geometry" />
        </mxCell>
        <mxCell id="jfE823DEsom-EpSGW_7k-24" style="edgeStyle=orthogonalEdgeStyle;rounded=0;orthogonalLoop=1;jettySize=auto;html=1;entryX=0.5;entryY=0;entryDx=0;entryDy=0;" edge="1" parent="1" source="jfE823DEsom-EpSGW_7k-17" target="jfE823DEsom-EpSGW_7k-23">
          <mxGeometry relative="1" as="geometry" />
        </mxCell>
        <mxCell id="jfE823DEsom-EpSGW_7k-17" value="Preprocessing" style="swimlane;whiteSpace=wrap;html=1;fillColor=#e1d5e7;strokeColor=#9673a6;" vertex="1" parent="1">
          <mxGeometry x="260" y="360" width="200" height="200" as="geometry" />
        </mxCell>
        <mxCell id="jfE823DEsom-EpSGW_7k-21" style="edgeStyle=orthogonalEdgeStyle;rounded=0;orthogonalLoop=1;jettySize=auto;html=1;exitX=0.5;exitY=1;exitDx=0;exitDy=0;entryX=0.5;entryY=0;entryDx=0;entryDy=0;" edge="1" parent="jfE823DEsom-EpSGW_7k-17" source="jfE823DEsom-EpSGW_7k-19" target="jfE823DEsom-EpSGW_7k-20">
          <mxGeometry relative="1" as="geometry" />
        </mxCell>
        <mxCell id="jfE823DEsom-EpSGW_7k-19" value="Z-Score Normalization" style="rounded=0;whiteSpace=wrap;html=1;fillColor=#e1d5e7;strokeColor=#9673a6;" vertex="1" parent="jfE823DEsom-EpSGW_7k-17">
          <mxGeometry x="40" y="40" width="120" height="60" as="geometry" />
        </mxCell>
        <mxCell id="jfE823DEsom-EpSGW_7k-20" value="PCA" style="rounded=0;whiteSpace=wrap;html=1;fillColor=#e1d5e7;strokeColor=#9673a6;" vertex="1" parent="jfE823DEsom-EpSGW_7k-17">
          <mxGeometry x="40" y="120" width="120" height="60" as="geometry" />
        </mxCell>
        <mxCell id="jfE823DEsom-EpSGW_7k-23" value="Classifier" style="rounded=1;whiteSpace=wrap;html=1;fillColor=#dae8fc;strokeColor=#6c8ebf;" vertex="1" parent="1">
          <mxGeometry x="300" y="600" width="120" height="60" as="geometry" />
        </mxCell>
      </root>
    </mxGraphModel>
  </diagram>
</mxfile>
